<?xml version="1.0" encoding="UTF-8"?>
<svg xmlns="http://www.w3.org/2000/svg" xmlns:xlink="http://www.w3.org/1999/xlink" width="54pt" height="54pt" viewBox="0 0 54 54" version="1.1">
<g id="surface1">
<path style=" stroke:none;fill-rule:nonzero;fill:rgb(0%,0%,0%);fill-opacity:1;" d="M 49.253906 6.433594 L 4.746094 6.433594 C 2.132812 6.433594 0 8.5625 0 11.179688 L 0 42.820312 C 0 45.425781 2.125 47.566406 4.746094 47.566406 L 49.253906 47.566406 C 51.863281 47.566406 54 45.441406 54 42.820312 L 54 11.179688 C 54 8.574219 51.875 6.433594 49.253906 6.433594 Z M 48.597656 9.597656 L 27.101562 31.097656 L 5.417969 9.597656 Z M 3.164062 42.164062 L 3.164062 11.816406 L 18.402344 26.925781 Z M 5.402344 44.402344 L 20.648438 29.15625 L 25.992188 34.449219 C 26.609375 35.066406 27.609375 35.066406 28.222656 34.449219 L 33.433594 29.238281 L 48.597656 44.402344 Z M 50.835938 42.164062 L 35.671875 27 L 50.835938 11.835938 Z M 50.835938 42.164062 "/>
</g>
</svg>
