<svg id="_x31_px" enable-background="new 0 0 24 24" height="512" viewBox="0 0 24 24" width="512" xmlns="http://www.w3.org/2000/svg"><path d="m21.5 21h-19c-1.378 0-2.5-1.122-2.5-2.5v-13c0-1.378 1.122-2.5 2.5-2.5h5.086c.401 0 .778.156 1.061.439l1.414 1.414c.093.094.222.147.353.147h11.086c1.378 0 2.5 1.122 2.5 2.5v11c0 1.378-1.122 2.5-2.5 2.5zm-19-17c-.827 0-1.5.673-1.5 1.5v13c0 .827.673 1.5 1.5 1.5h19c.827 0 1.5-.673 1.5-1.5v-11c0-.827-.673-1.5-1.5-1.5h-11.086c-.4 0-.777-.156-1.061-.439l-1.413-1.415c-.095-.094-.22-.146-.354-.146z"/><path d="m9.5 16h-2c-.827 0-1.5-.673-1.5-1.5v-3c0-.827.673-1.5 1.5-1.5h2c.276 0 .5.224.5.5s-.224.5-.5.5h-2c-.276 0-.5.224-.5.5v3c0 .276.224.5.5.5h2c.276 0 .5.224.5.5s-.224.5-.5.5z"/><path d="m14 16c-.276 0-.5-.224-.5-.5v-5c0-.276.224-.5.5-.5s.5.224.5.5v5c0 .276-.224.5-.5.5z"/><path d="m16 16c-.276 0-.5-.224-.5-.5v-5c0-.276.224-.5.5-.5s.5.224.5.5v5c0 .276-.224.5-.5.5z"/><path d="m17.5 14.5h-5c-.276 0-.5-.224-.5-.5s.224-.5.5-.5h5c.276 0 .5.224.5.5s-.224.5-.5.5z"/><path d="m17.5 12.5h-5c-.276 0-.5-.224-.5-.5s.224-.5.5-.5h5c.276 0 .5.224.5.5s-.224.5-.5.5z"/></svg>