<?xml version="1.0" standalone="no"?>
<!DOCTYPE svg PUBLIC "-//W3C//DTD SVG 20010904//EN"
 "http://www.w3.org/TR/2001/REC-SVG-20010904/DTD/svg10.dtd">
<svg version="1.0" xmlns="http://www.w3.org/2000/svg"
 width="184.000000pt" height="184.000000pt" viewBox="0 0 184.000000 184.000000"
 preserveAspectRatio="xMidYMid meet">
<metadata>
Created by potrace 1.16, written by Peter Selinger 2001-2019
</metadata>
<g transform="translate(0.000000,184.000000) scale(0.100000,-0.100000)"
fill="#000000" stroke="none">
<path d="M795 1473 c-33 -8 -82 -50 -115 -98 -39 -57 -52 -57 -35 -2 6 23 15
55 19 70 l7 28 -48 -6 c-134 -17 -183 -44 -183 -100 0 -19 -7 -23 -50 -29 -51
-7 -104 -41 -115 -75 -12 -38 28 -100 65 -101 8 0 0 9 -17 20 -64 39 -33 121
53 140 21 5 40 7 42 5 3 -2 -4 -47 -14 -99 l-18 -96 -35 6 c-48 7 -66 -8 -95
-79 -13 -33 -27 -54 -30 -48 -4 6 -22 11 -41 11 -63 0 -105 -92 -105 -232 0
-130 40 -198 117 -198 55 0 87 21 119 76 14 24 30 42 35 38 5 -3 25 3 45 12
35 17 80 76 114 149 l13 30 17 -60 c10 -33 27 -104 40 -157 32 -142 64 -173
137 -129 28 18 48 42 142 171 l26 35 5 -29 c8 -44 25 -42 61 6 21 29 30 36 26
21 -3 -13 1 -27 9 -33 10 -9 16 -4 29 25 17 43 19 57 5 35 -10 -14 -7 10 6 62
4 12 0 15 -16 11 -12 -3 -20 -14 -20 -26 0 -23 -57 -117 -71 -117 -11 0 -4 50
16 118 10 31 10 42 2 42 -14 0 -46 -20 -34 -20 11 0 -55 -120 -65 -120 -11 0
-10 44 3 77 5 15 20 36 32 45 20 16 20 18 4 18 -10 0 -32 -13 -48 -29 -33 -34
-40 -89 -13 -116 15 -14 14 -19 -12 -56 -40 -58 -104 -119 -124 -119 -30 0
-38 22 -49 135 -11 121 -29 182 -66 231 -31 40 -31 44 -2 44 12 0 40 9 63 19
29 13 55 17 90 14 33 -3 63 0 88 11 21 9 40 16 41 16 1 0 0 -11 -2 -24 -9 -43
18 -42 58 3 35 39 38 40 41 19 2 -16 10 -24 28 -25 14 -1 19 0 13 3 -22 10
-15 80 10 110 35 40 59 28 45 -23 -5 -21 -14 -42 -18 -48 -5 -5 -2 -25 6 -44
l14 -34 25 23 c30 28 34 41 5 15 -19 -18 -20 -17 -20 7 0 14 7 47 15 74 8 27
15 52 15 55 0 10 -82 9 -102 -2 -10 -5 -29 -34 -43 -63 -25 -52 -50 -84 -60
-74 -11 10 16 72 46 105 111 127 105 302 -11 361 -43 21 -73 25 -115 15z
m-230 -136 c-17 -80 -32 -120 -65 -175 -23 -40 -46 -72 -50 -72 -10 0 35 180
47 189 4 3 8 23 9 43 1 35 0 36 -23 27 -33 -12 -33 -12 -33 14 0 32 37 65 85
75 22 5 43 8 46 6 3 -2 -4 -50 -16 -107z m328 87 c85 -85 13 -344 -114 -410
-26 -13 -89 -20 -89 -9 0 3 18 23 39 46 102 104 91 299 -16 299 l-34 0 22 31
c50 71 143 92 192 43z m-167 -119 c30 -47 5 -166 -51 -239 -22 -29 -32 -9 -13
25 9 16 13 29 8 29 -15 0 -32 -39 -28 -65 2 -18 -6 -31 -31 -50 -31 -22 -61
-33 -61 -21 0 17 74 245 94 290 28 63 54 73 82 31z m-365 -185 c25 -14 24 -22
-6 -58 -26 -31 -32 -61 -15 -78 6 -6 1 -42 -15 -103 -34 -126 -38 -133 -60
-91 -15 29 -16 40 -5 84 6 28 10 58 8 66 -2 11 4 14 25 12 15 -2 27 1 27 7 0
6 -16 11 -35 11 -19 0 -35 4 -35 8 0 27 34 116 51 133 22 22 32 23 60 9z
m-150 -120 c26 -14 24 -32 -6 -60 -32 -30 -30 -70 3 -85 13 -6 26 -24 32 -45
5 -19 16 -45 25 -56 13 -20 12 -26 -9 -65 -29 -56 -64 -78 -100 -61 -41 19
-60 67 -60 157 0 87 13 142 44 193 21 33 38 39 71 22z"/>
<path d="M1272 1265 c-11 -14 -26 -48 -33 -76 -12 -46 -15 -50 -38 -46 -39 8
-50 -1 -80 -64 -15 -33 -22 -54 -15 -48 11 9 14 7 14 -12 0 -36 15 -53 36 -44
13 5 15 9 7 12 -18 7 -16 78 2 113 9 18 23 30 35 30 18 0 20 -5 14 -42 -4 -24
-13 -54 -21 -67 -8 -13 -10 -20 -4 -17 7 4 11 -1 11 -12 0 -24 25 -46 41 -37
8 6 8 10 -2 16 -11 6 -11 20 0 76 25 136 43 201 62 222 15 16 16 21 5 21 -8 0
-23 -11 -34 -25z"/>
<path d="M1603 1152 c-6 -4 -17 -28 -23 -53 -13 -50 -62 -119 -86 -119 -35 0
-33 103 3 142 20 23 30 23 36 1 4 -16 5 -16 6 -1 1 23 -15 31 -45 24 -18 -5
-31 -21 -46 -54 -43 -99 -100 -143 -114 -88 -7 29 12 100 32 121 13 13 19 13
33 3 13 -10 13 -9 -1 7 -28 30 -60 7 -97 -67 -17 -35 -24 -54 -16 -44 15 19
15 19 15 -2 0 -23 32 -62 51 -62 6 0 26 15 45 34 l34 34 6 -24 c13 -51 62 -51
107 0 17 20 18 20 13 1 -12 -45 -26 -130 -26 -160 0 -38 22 -52 42 -27 9 11
10 14 1 8 -16 -9 -17 31 -3 89 34 138 55 245 48 245 -2 0 -8 -4 -15 -8z"/>
</g>
</svg>
