<?xml version="1.0" standalone="no"?>
<!DOCTYPE svg PUBLIC "-//W3C//DTD SVG 20010904//EN"
 "http://www.w3.org/TR/2001/REC-SVG-20010904/DTD/svg10.dtd">
<svg version="1.0" xmlns="http://www.w3.org/2000/svg"
 width="1374.000000pt" height="1374.000000pt" viewBox="0 0 1374.000000 1374.000000"
 preserveAspectRatio="xMidYMid meet">
<metadata>
Created by potrace 1.16, written by Peter Selinger 2001-2019
</metadata>
<g transform="translate(0.000000,1374.000000) scale(0.100000,-0.100000)"
fill="#000000" stroke="none">
<path d="M5000 11051 c0 -13 -94 -47 -181 -65 -95 -19 -252 -40 -454 -61 -297
-31 -511 -78 -675 -150 -125 -54 -194 -101 -272 -183 -54 -58 -75 -91 -128
-202 -4 -8 -15 -57 -25 -108 -18 -93 -17 -113 10 -223 l7 -26 -169 -17 c-468
-49 -718 -144 -908 -347 -145 -154 -195 -307 -165 -500 30 -192 134 -348 293
-437 50 -29 216 -92 241 -92 17 0 37 87 22 98 -6 5 -39 16 -74 26 -186 49
-323 182 -361 347 -16 67 -13 198 5 260 26 87 71 163 143 236 115 118 253 192
446 238 147 36 405 67 405 49 0 -29 -305 -1482 -313 -1490 -2 -3 -24 16 -49
40 -24 25 -64 54 -89 65 -52 23 -151 41 -230 41 -164 0 -341 -117 -439 -289
-8 -14 -18 -28 -21 -31 -3 -3 -27 -50 -53 -105 -26 -55 -55 -113 -64 -130 -9
-16 -15 -30 -13 -30 1 0 0 -7 -3 -15 -2 -8 -20 -62 -39 -120 -57 -171 -64
-201 -66 -279 -1 -42 -4 -77 -7 -80 -2 -2 -31 21 -64 53 -161 153 -411 181
-592 65 -257 -165 -473 -711 -543 -1374 -17 -161 -20 -555 -5 -690 34 -310
142 -632 281 -837 113 -166 280 -276 475 -314 89 -17 246 -18 330 -3 309 55
584 315 848 802 39 72 51 87 66 82 33 -10 118 -22 142 -19 119 13 250 55 319
101 15 10 45 30 67 46 60 39 175 151 242 232 89 109 236 333 315 480 137 255
211 424 231 530 3 19 9 35 13 35 10 0 91 -218 135 -360 51 -166 90 -340 131
-577 72 -414 122 -647 200 -938 128 -471 258 -704 448 -806 50 -27 76 -33 140
-37 101 -6 171 10 275 61 203 101 431 317 700 663 109 140 349 493 417 614 30
52 78 116 125 165 43 44 94 106 114 138 20 31 38 57 39 57 1 0 0 -52 -2 -116
-7 -228 44 -349 152 -361 60 -7 116 26 208 125 67 72 220 291 285 409 30 55
48 69 39 31 -23 -104 -42 -252 -35 -288 16 -89 112 -136 202 -99 36 15 37 16
165 359 52 140 117 309 143 375 166 416 290 577 290 376 0 -81 -30 -229 -108
-527 -95 -363 -104 -408 -105 -524 -2 -89 1 -112 20 -153 18 -39 31 -52 69
-69 40 -17 52 -19 85 -9 91 27 237 213 401 511 21 37 38 32 38 -11 0 -48 47
-177 87 -236 48 -72 117 -113 192 -113 103 0 240 101 335 248 26 39 48 72 49
72 1 0 1 -49 -1 -110 -8 -231 43 -355 152 -367 36 -5 54 0 89 20 96 57 246
249 409 522 127 214 268 462 268 472 0 12 -48 35 -59 28 -5 -2 -44 -67 -86
-142 -166 -293 -392 -647 -458 -717 -45 -47 -86 -48 -99 -1 -15 57 19 293 73
510 43 173 135 498 166 583 14 40 23 76 20 79 -4 3 -19 -2 -34 -12 -17 -12
-59 -21 -115 -26 -93 -9 -128 -21 -128 -44 0 -25 -20 -27 -56 -6 -59 35 -150
61 -211 61 -260 -1 -491 -223 -581 -558 -13 -49 -47 -117 -117 -233 -122 -204
-211 -335 -232 -343 -39 -15 -37 24 9 204 16 63 49 192 73 286 115 452 111
639 -17 749 -78 66 -149 56 -238 -34 -85 -86 -182 -290 -335 -706 -68 -186
-103 -267 -90 -209 40 176 165 778 162 780 -2 2 -18 -3 -36 -12 -17 -9 -64
-20 -104 -25 -103 -13 -115 -17 -126 -37 -6 -10 -26 -98 -45 -196 -20 -97 -41
-187 -47 -199 -59 -111 -354 -560 -402 -610 -43 -46 -82 -50 -98 -10 -13 35 3
192 37 363 33 164 151 598 201 738 14 40 23 75 20 78 -2 3 -22 -4 -43 -15 -23
-11 -72 -22 -119 -26 -87 -8 -115 -18 -115 -41 0 -24 -27 -27 -58 -6 -44 32
-146 62 -209 62 -151 0 -303 -81 -420 -221 -52 -63 -135 -228 -158 -314 -38
-139 -29 -308 22 -429 40 -98 93 -160 157 -187 56 -23 65 -32 46 -44 -6 -4
-70 -95 -142 -203 -202 -304 -363 -507 -543 -687 -184 -184 -332 -276 -456
-283 -238 -14 -277 123 -354 1263 -24 346 -57 538 -137 785 -106 328 -217 543
-368 713 -63 70 -179 166 -240 198 l-45 23 40 7 c22 4 74 12 115 19 299 44
686 178 903 311 32 20 55 28 63 23 107 -79 113 -82 241 -108 115 -24 316 -18
458 15 61 15 247 74 272 88 10 5 43 21 73 35 66 30 158 83 183 104 9 8 19 13
22 10 3 -3 -4 -45 -16 -94 -41 -170 -21 -292 54 -330 44 -24 138 -14 206 21
105 52 270 244 370 427 43 78 63 104 54 70 -6 -24 42 -169 67 -204 11 -15 20
-31 20 -37 0 -5 22 -29 49 -54 82 -73 176 -85 276 -37 53 26 150 111 207 183
l38 49 0 -69 c0 -144 40 -278 97 -323 38 -30 106 -36 156 -14 89 39 267 252
391 467 30 50 51 54 41 6 -6 -28 11 -163 23 -184 4 -5 8 -19 9 -30 13 -81 103
-196 169 -214 48 -13 51 -13 114 0 86 18 179 90 292 223 l25 29 6 -74 c11
-138 78 -288 143 -318 91 -41 163 -19 242 73 60 71 252 373 328 516 l19 35 6
-90 c24 -324 196 -496 453 -455 36 6 83 18 104 28 117 53 299 242 403 419 l36
63 6 -83 c11 -144 67 -269 161 -359 92 -88 281 -99 420 -25 36 19 95 67 146
117 84 83 96 97 154 173 15 21 30 36 32 34 3 -2 -12 -73 -31 -158 -62 -266
-125 -591 -139 -719 -23 -200 -27 -263 -23 -376 3 -128 5 -143 26 -197 25 -64
120 -127 190 -127 125 0 262 214 316 495 22 115 33 347 25 510 -7 124 -33 278
-69 401 -6 23 -2 59 20 145 16 63 53 218 84 344 31 127 60 247 66 269 23 87
335 335 421 336 36 0 50 -42 47 -147 -1 -54 -6 -109 -10 -123 -5 -14 -10 -38
-13 -55 -6 -40 -60 -221 -79 -266 -13 -32 -30 -44 -158 -108 -194 -97 -215
-109 -263 -156 -58 -57 -75 -83 -91 -140 -17 -57 -13 -103 10 -139 23 -34 100
-84 142 -92 61 -12 157 2 224 32 152 67 260 190 371 423 49 102 56 112 93 127
84 33 172 79 218 112 62 44 187 228 187 275 0 17 -47 39 -69 32 -9 -2 -40 -45
-68 -94 -60 -102 -117 -157 -210 -201 -35 -16 -63 -27 -63 -24 0 3 10 52 21
107 31 146 32 325 3 388 -24 52 -89 119 -115 119 -10 0 -21 5 -25 11 -7 11
-113 8 -179 -5 -57 -12 -190 -86 -270 -150 -44 -35 -81 -63 -83 -61 -1 1 13
71 33 154 50 216 49 219 -36 182 -24 -11 -75 -22 -113 -26 -74 -7 -99 -18
-115 -50 -6 -11 -45 -157 -87 -324 -76 -304 -101 -373 -180 -506 -13 -22 -27
-48 -30 -57 -4 -10 -10 -18 -15 -18 -5 0 -9 -6 -9 -14 0 -8 -3 -16 -7 -18 -5
-1 -41 -47 -81 -100 -116 -155 -236 -236 -330 -225 -38 4 -53 12 -83 45 -21
22 -42 58 -48 79 -19 69 -29 213 -20 282 11 93 23 121 51 121 13 0 64 20 113
44 151 75 308 240 361 380 11 31 18 77 19 122 0 66 -3 76 -31 111 -39 48 -82
70 -164 80 -146 19 -275 -31 -382 -147 -72 -79 -75 -82 -111 -134 -14 -22 -24
-43 -21 -48 3 -4 1 -8 -4 -8 -10 0 -56 -107 -67 -152 -18 -82 -45 -168 -61
-199 -66 -125 -90 -167 -154 -263 -168 -251 -344 -366 -450 -294 -51 35 -77
80 -90 160 -16 94 -15 241 2 298 12 40 18 45 52 52 118 25 311 172 399 306 58
88 80 151 81 239 1 65 -2 74 -30 110 -39 49 -85 72 -165 81 -145 17 -258 -25
-367 -136 -78 -79 -74 -74 -134 -172 -25 -41 -58 -113 -73 -160 -42 -133 -57
-173 -75 -200 -9 -14 -25 -43 -36 -65 -10 -22 -21 -42 -25 -45 -3 -3 -23 -36
-44 -75 -20 -38 -68 -119 -106 -180 -38 -60 -72 -117 -76 -125 -4 -8 -11 -19
-15 -25 -5 -5 -36 -47 -69 -92 -33 -46 -64 -83 -68 -83 -15 0 -23 76 -16 157
14 169 37 343 57 442 19 94 27 112 82 195 241 363 440 784 528 1116 35 130 48
314 29 386 -21 77 -91 144 -151 144 -46 0 -166 -69 -221 -128 -51 -53 -68 -75
-111 -141 -18 -27 -103 -191 -107 -203 -1 -4 -11 -29 -22 -55 -38 -87 -116
-336 -155 -493 -21 -85 -39 -156 -40 -158 -1 -2 -30 11 -65 28 -35 17 -71 33
-79 35 -138 37 -225 28 -325 -33 -49 -30 -155 -132 -155 -149 0 -7 -3 -13 -8
-13 -7 0 -46 -66 -47 -79 -1 -3 -8 -19 -17 -36 -18 -35 -78 -218 -78 -240 0
-18 -32 -89 -43 -93 -4 -2 -5 -8 -1 -13 3 -5 0 -9 -5 -9 -6 0 -11 -7 -11 -15
0 -8 -3 -15 -8 -15 -4 0 -16 -17 -27 -37 -11 -21 -26 -44 -32 -51 -7 -7 -13
-18 -13 -23 0 -5 -8 -18 -17 -29 -10 -10 -27 -36 -38 -57 -11 -21 -22 -40 -26
-43 -7 -6 -102 -151 -108 -165 -4 -8 -50 -61 -89 -101 -38 -39 -56 7 -48 115
14 181 53 358 180 801 42 145 74 270 71 278 -3 10 -13 8 -43 -7 -22 -11 -69
-22 -108 -25 -98 -8 -116 -13 -139 -38 -19 -23 -21 -23 -55 -6 -104 49 -116
52 -220 51 -95 0 -185 -29 -270 -86 -56 -38 -180 -164 -180 -183 0 -8 -4 -14
-9 -14 -4 0 -22 -27 -40 -59 -35 -67 -84 -191 -75 -191 4 0 2 -6 -4 -12 -5 -7
-12 -28 -15 -45 -3 -18 -12 -40 -21 -49 -9 -8 -19 -26 -22 -40 -3 -13 -10 -24
-14 -24 -5 0 -14 -16 -21 -35 -7 -19 -17 -35 -22 -35 -4 0 -5 -4 -2 -10 3 -5
1 -10 -4 -10 -6 0 -11 -7 -11 -15 0 -8 -4 -15 -8 -15 -5 0 -17 -18 -28 -40
-10 -22 -22 -40 -26 -40 -5 0 -8 -7 -8 -15 0 -8 -4 -15 -10 -15 -5 0 -10 -7
-10 -15 0 -8 -4 -15 -10 -15 -5 0 -10 -4 -10 -10 0 -26 -155 -185 -171 -175
-8 6 -10 30 -6 84 6 81 25 162 77 331 l32 106 95 99 c235 246 387 454 519 710
148 287 220 554 239 885 12 195 -27 480 -85 625 -4 11 -14 36 -21 55 -83 233
-313 508 -514 615 -26 14 -53 29 -59 34 -24 19 -196 81 -281 102 -112 26 -400
38 -497 20 -328 -61 -624 -250 -851 -542 -89 -115 -187 -260 -187 -276 0 -7
-3 -13 -7 -13 -9 0 -36 -54 -62 -125 -17 -46 -25 -54 -97 -97 -44 -25 -84 -47
-91 -47 -7 -1 2 33 23 84 37 91 268 1001 258 1016 -7 12 -44 12 -44 0z m1375
-256 c109 -32 175 -66 236 -123 26 -24 53 -48 62 -55 20 -16 89 -121 119 -182
52 -104 96 -268 119 -435 19 -143 16 -471 -5 -610 -20 -127 -47 -253 -76 -345
-10 -33 -26 -85 -35 -115 -9 -30 -25 -73 -35 -96 -11 -22 -28 -65 -40 -95 -25
-63 -136 -287 -153 -307 -11 -13 -35 -13 -128 4 l-37 6 59 129 c93 204 111
303 65 356 -21 24 -31 28 -78 27 -68 0 -154 -40 -220 -101 -26 -25 -48 -50
-48 -55 0 -5 -8 -18 -19 -29 -26 -28 -51 -112 -51 -171 0 -81 43 -152 121
-202 l26 -16 -47 -93 c-25 -50 -56 -108 -68 -127 -30 -49 -28 -57 19 -71 39
-12 42 -11 60 12 10 13 19 27 19 30 0 3 26 52 58 110 l57 105 52 -11 c69 -16
85 -29 69 -58 -17 -33 -89 -140 -104 -155 -6 -8 -17 -23 -23 -34 -6 -11 -19
-29 -29 -41 -10 -12 -46 -56 -80 -97 -118 -143 -226 -242 -359 -327 -205 -132
-412 -162 -693 -101 -27 5 -48 13 -48 17 0 4 36 36 80 70 399 309 659 733 751
1224 27 144 37 433 20 556 -34 233 -115 406 -261 551 -144 144 -277 197 -465
186 -55 -3 -115 -10 -132 -15 -18 -5 -33 -7 -33 -4 0 3 39 54 86 112 328 405
503 534 814 599 83 18 275 6 375 -23z m-2031 -67 c-6 -34 -6 -36 -17 -78 -4
-14 -9 -36 -11 -50 -2 -14 -9 -43 -14 -65 -6 -22 -13 -56 -16 -75 -3 -19 -8
-44 -11 -55 -17 -69 -24 -104 -29 -135 -3 -19 -8 -44 -11 -55 -17 -70 -24
-105 -30 -140 -8 -47 -9 -53 -18 -80 -3 -11 -8 -36 -11 -55 -7 -45 -12 -66
-24 -115 -6 -22 -13 -57 -16 -79 -4 -21 -8 -41 -10 -45 -2 -3 -7 -22 -10 -41
-7 -42 -12 -65 -22 -105 -4 -16 -8 -41 -10 -55 -1 -14 -3 -25 -4 -25 -1 0 -3
-9 -4 -20 -2 -11 -9 -63 -15 -115 -7 -52 -15 -104 -17 -116 -2 -11 -26 -56
-54 -98 -150 -230 -317 -521 -478 -835 l-80 -155 -49 3 c-49 2 -50 2 -57 -30
-10 -49 -7 -89 6 -89 6 0 24 15 39 33 l28 32 -21 -55 c-12 -30 -56 -136 -98
-235 -42 -99 -83 -195 -90 -214 -8 -19 -15 -30 -17 -24 -5 13 90 382 123 480
13 39 24 83 24 97 0 24 345 1420 355 1436 3 4 26 -3 52 -16 84 -41 102 -31
106 58 l2 33 -65 8 c-36 5 -66 11 -68 12 -4 4 82 350 104 418 24 73 14 83 -44
46 -54 -33 -179 -63 -313 -75 l-80 -7 5 24 c3 13 11 62 17 108 22 177 89 297
216 392 85 64 101 71 283 124 44 12 171 37 280 54 30 5 83 9 118 10 l62 1 -6
-32z m920 -834 c100 -34 182 -156 221 -324 23 -100 31 -367 16 -496 -41 -335
-173 -660 -414 -1019 -55 -81 -170 -225 -180 -225 -12 0 -6 187 8 239 20 75
44 112 125 191 l77 75 -33 49 c-46 69 -57 73 -102 38 -98 -78 -175 -180 -207
-276 -25 -72 -27 -83 -32 -177 -4 -73 -2 -96 17 -145 12 -33 29 -67 38 -77 14
-16 13 -20 -24 -58 -86 -90 -276 -225 -411 -292 -87 -44 -254 -110 -260 -103
-3 3 2 21 11 41 9 19 23 50 31 68 8 17 68 219 134 448 154 534 208 712 282
934 131 388 345 935 370 943 5 2 7 7 4 11 -7 12 26 124 41 140 36 40 193 48
288 15z m4558 -376 c43 -77 -22 -396 -139 -683 -50 -122 -175 -375 -261 -526
-11 -20 -26 -47 -34 -60 -7 -13 -21 -35 -32 -49 l-19 -25 7 50 c14 96 97 498
132 632 79 305 180 552 262 641 45 47 66 52 84 20z m-3412 -732 c0 -46 -93
-296 -110 -296 -4 0 -12 11 -20 24 -29 55 13 192 83 264 37 38 47 40 47 8z
m-2506 -171 c-28 -90 -135 -460 -140 -484 -3 -14 -14 -51 -25 -83 -10 -32 -26
-84 -34 -116 -14 -59 -58 -222 -120 -447 -19 -71 -38 -146 -40 -165 -13 -81
-18 -98 -47 -153 -21 -41 -27 -62 -19 -70 7 -9 4 -26 -11 -57 -18 -39 -97
-268 -102 -295 -1 -5 -4 -14 -7 -20 -4 -5 -12 -28 -19 -50 -15 -49 -116 -318
-135 -360 -71 -157 -170 -337 -266 -480 -36 -54 -226 -251 -235 -243 -2 3 16
61 41 129 108 289 218 651 305 999 56 226 211 617 460 1155 136 295 396 803
406 792 2 -1 -4 -25 -12 -52z m5120 -171 c26 -9 50 -22 52 -29 3 -6 -11 -88
-30 -181 -19 -93 -49 -257 -67 -364 -17 -107 -34 -197 -38 -200 -11 -9 -61
-78 -61 -85 0 -6 -4 -11 -43 -56 -83 -96 -107 -119 -129 -124 -73 -19 -112
130 -97 372 13 192 81 412 168 544 48 72 86 106 139 125 48 17 50 17 106 -2z
m1384 -4 c34 -32 29 -85 -14 -162 -80 -142 -196 -261 -308 -314 -38 -19 -72
-32 -74 -30 -15 16 55 242 106 339 72 138 226 227 290 167z m999 -6 c22 -22
24 -31 19 -66 -7 -40 -25 -87 -48 -122 -44 -67 -132 -169 -185 -215 -54 -48
-183 -109 -183 -87 0 7 9 48 20 92 58 226 149 367 265 408 59 21 83 19 112
-10z m-3656 -34 c21 -11 39 -22 39 -24 0 -30 -126 -515 -140 -538 -10 -17 -17
-35 -14 -40 3 -4 0 -8 -5 -8 -6 0 -11 -7 -11 -15 0 -8 -5 -15 -11 -15 -5 0 -8
-4 -5 -9 4 -5 3 -11 -2 -13 -4 -1 -28 -32 -53 -68 -76 -106 -136 -167 -194
-196 -52 -25 -56 -25 -80 -10 -13 9 -27 29 -30 44 -4 15 -8 36 -10 47 -6 28
14 226 31 310 8 39 28 115 45 170 52 166 108 261 193 325 95 72 162 83 247 40z
m-5163 -12 c26 -6 86 -36 135 -65 70 -44 87 -59 87 -78 0 -38 -41 -218 -53
-233 -6 -8 -28 -22 -48 -33 -55 -28 -155 -114 -194 -167 -58 -80 -90 -174 -90
-267 1 -117 39 -193 123 -246 18 -12 32 -29 32 -40 0 -30 -180 -742 -245 -969
-72 -252 -187 -595 -200 -595 -14 0 -132 207 -166 292 -16 39 -40 123 -54 187
-14 63 -32 134 -41 156 l-17 41 32 40 c77 95 112 231 112 434 0 110 -4 138
-37 253 -6 22 -5 22 79 22 92 0 224 -21 283 -46 20 -8 39 -13 42 -9 6 5 42
138 45 164 1 10 -13 18 -43 23 -65 12 -270 14 -376 5 l-91 -8 -13 32 c-13 29
-11 40 12 108 15 42 40 133 57 202 73 307 184 564 296 687 39 44 111 94 155
108 47 16 121 17 178 2z m83 -776 c-23 -97 -45 -186 -50 -197 -7 -19 -8 -18
-21 5 -7 14 -15 57 -18 95 -4 59 0 81 20 131 27 66 100 173 106 155 2 -6 -15
-91 -37 -189z m9649 26 c-102 -204 -159 -265 -255 -275 -38 -5 -45 -2 -60 20
-13 21 -14 32 -6 65 15 53 40 83 116 137 45 32 225 136 251 145 0 0 -21 -42
-46 -92z m-10795 -147 c75 -35 159 -116 209 -201 41 -70 43 -78 19 -87 -71
-27 -198 -116 -278 -197 -103 -103 -139 -164 -161 -267 -26 -125 6 -232 97
-320 69 -67 146 -102 239 -109 l75 -5 2 -80 c3 -112 3 -114 13 -120 5 -3 7
-12 4 -19 -3 -8 -1 -17 5 -20 6 -4 8 -13 5 -20 -3 -8 0 -17 5 -21 6 -3 9 -11
5 -16 -3 -5 0 -16 6 -24 7 -8 10 -15 7 -15 -20 0 99 -268 145 -326 28 -36 114
-121 132 -131 17 -9 15 -17 -30 -124 -115 -272 -234 -471 -353 -590 -87 -86
-135 -112 -256 -135 -104 -21 -176 -11 -271 36 -103 51 -244 217 -310 367 -36
81 -70 216 -96 378 -20 123 -23 176 -22 440 0 311 8 406 55 655 52 274 151
570 245 731 78 132 188 230 282 250 66 14 160 2 227 -30z m10324 -421 c37
-244 17 -532 -53 -737 -13 -39 -22 -74 -18 -77 3 -3 0 -6 -6 -6 -7 0 -12 -8
-12 -19 0 -10 -7 -24 -15 -31 -8 -7 -15 -17 -15 -21 0 -16 -62 -79 -71 -73 -5
3 -9 35 -9 72 0 84 23 233 99 637 63 336 75 397 78 389 2 -5 11 -65 22 -134z
m-10144 -77 c-20 -82 -35 -199 -35 -281 0 -88 23 -226 39 -236 4 -3 25 7 47
21 21 15 33 19 26 10 -8 -9 -34 -28 -59 -43 -36 -21 -54 -25 -89 -21 -163 18
-241 189 -159 348 36 69 196 229 229 229 4 0 5 -12 1 -27z m5022 -609 c70 -24
74 -28 58 -73 -7 -21 -29 -60 -48 -87 -32 -46 -379 -649 -426 -741 -11 -23
-18 -49 -15 -58 6 -13 1 -16 -22 -13 -60 7 -77 97 -54 288 32 262 118 497 221
600 91 91 184 118 286 84z m2541 -13 c31 -16 42 -27 38 -39 -3 -9 -31 -123
-62 -252 -59 -249 -74 -286 -162 -420 -131 -198 -287 -302 -338 -225 -47 72
-18 359 61 600 56 171 139 285 247 339 45 23 62 27 113 23 34 -2 79 -14 103
-26z"/>
</g>
</svg>
