<?xml version="1.0" encoding="UTF-8"?>
<svg xmlns="http://www.w3.org/2000/svg" xmlns:xlink="http://www.w3.org/1999/xlink" width="100pt" height="100pt" viewBox="0 0 100 100" version="1.1">
<g id="surface1">
<path style=" stroke:none;fill-rule:nonzero;fill:rgb(0%,0%,0%);fill-opacity:1;" d="M 36.382812 19.566406 C 36.382812 19.660156 35.699219 19.90625 35.066406 20.039062 C 34.375 20.175781 33.230469 20.328125 31.761719 20.484375 C 29.601562 20.707031 28.042969 21.050781 26.851562 21.574219 C 25.941406 21.96875 25.4375 22.308594 24.871094 22.90625 C 24.476562 23.328125 24.324219 23.570312 23.9375 24.375 C 23.910156 24.433594 23.832031 24.789062 23.757812 25.160156 C 23.625 25.839844 23.632812 25.984375 23.832031 26.785156 L 23.882812 26.972656 L 22.652344 27.097656 C 19.246094 27.453125 17.425781 28.144531 16.042969 29.621094 C 14.988281 30.742188 14.625 31.855469 14.84375 33.261719 C 15.0625 34.65625 15.820312 35.792969 16.976562 36.441406 C 17.339844 36.652344 18.546875 37.109375 18.730469 37.109375 C 18.851562 37.109375 19 36.476562 18.890625 36.394531 C 18.847656 36.359375 18.605469 36.28125 18.351562 36.207031 C 16.996094 35.851562 16 34.882812 15.722656 33.683594 C 15.609375 33.195312 15.628906 32.242188 15.761719 31.789062 C 15.949219 31.15625 16.277344 30.605469 16.800781 30.074219 C 17.636719 29.214844 18.640625 28.675781 20.046875 28.339844 C 21.117188 28.078125 22.992188 27.855469 22.992188 27.984375 C 22.992188 28.195312 20.773438 38.769531 20.714844 38.828125 C 20.703125 38.847656 20.542969 38.710938 20.359375 38.535156 C 20.183594 38.355469 19.894531 38.140625 19.710938 38.0625 C 19.332031 37.894531 18.613281 37.765625 18.039062 37.765625 C 16.84375 37.765625 15.558594 38.617188 14.84375 39.867188 C 14.785156 39.96875 14.710938 40.070312 14.691406 40.09375 C 14.667969 40.113281 14.496094 40.457031 14.304688 40.855469 C 14.117188 41.257812 13.90625 41.679688 13.839844 41.800781 C 13.773438 41.917969 13.730469 42.019531 13.746094 42.019531 C 13.753906 42.019531 13.746094 42.070312 13.722656 42.128906 C 13.707031 42.1875 13.578125 42.582031 13.4375 43.003906 C 13.023438 44.246094 12.972656 44.464844 12.960938 45.035156 C 12.953125 45.339844 12.929688 45.59375 12.90625 45.617188 C 12.894531 45.628906 12.683594 45.460938 12.441406 45.230469 C 11.269531 44.117188 9.453125 43.914062 8.136719 44.757812 C 6.265625 45.957031 4.691406 49.929688 4.183594 54.753906 C 4.058594 55.925781 4.039062 58.792969 4.148438 59.777344 C 4.394531 62.03125 5.179688 64.375 6.191406 65.867188 C 7.015625 67.074219 8.230469 67.875 9.648438 68.152344 C 10.296875 68.273438 11.4375 68.28125 12.050781 68.171875 C 14.296875 67.773438 16.296875 65.878906 18.21875 62.335938 C 18.503906 61.8125 18.589844 61.703125 18.699219 61.742188 C 18.941406 61.8125 19.558594 61.898438 19.734375 61.878906 C 20.597656 61.785156 21.550781 61.476562 22.054688 61.144531 C 22.164062 61.070312 22.382812 60.925781 22.542969 60.808594 C 22.980469 60.523438 23.816406 59.710938 24.304688 59.121094 C 24.949219 58.328125 26.019531 56.695312 26.59375 55.628906 C 27.59375 53.773438 28.128906 52.542969 28.277344 51.769531 C 28.296875 51.632812 28.339844 51.515625 28.371094 51.515625 C 28.441406 51.515625 29.03125 53.101562 29.351562 54.136719 C 29.722656 55.34375 30.007812 56.609375 30.304688 58.335938 C 30.828125 61.347656 31.195312 63.042969 31.761719 65.160156 C 32.691406 68.585938 33.640625 70.28125 35.019531 71.023438 C 35.386719 71.222656 35.574219 71.265625 36.039062 71.292969 C 36.773438 71.335938 37.285156 71.222656 38.039062 70.851562 C 39.519531 70.113281 41.175781 68.542969 43.132812 66.027344 C 43.925781 65.007812 45.675781 62.4375 46.167969 61.558594 C 46.386719 61.179688 46.738281 60.714844 47.078125 60.355469 C 47.390625 60.039062 47.761719 59.585938 47.90625 59.351562 C 48.054688 59.128906 48.183594 58.9375 48.191406 58.9375 C 48.199219 58.9375 48.191406 59.316406 48.175781 59.78125 C 48.125 61.441406 48.496094 62.320312 49.28125 62.410156 C 49.71875 62.460938 50.125 62.21875 50.796875 61.5 C 51.285156 60.976562 52.398438 59.382812 52.871094 58.523438 C 53.089844 58.125 53.21875 58.023438 53.152344 58.296875 C 52.988281 59.054688 52.847656 60.132812 52.898438 60.394531 C 53.015625 61.042969 53.714844 61.382812 54.367188 61.113281 C 54.632812 61.003906 54.636719 60.996094 55.570312 58.503906 C 55.949219 57.484375 56.421875 56.253906 56.609375 55.773438 C 57.820312 52.746094 58.71875 51.574219 58.71875 53.039062 C 58.71875 53.625 58.503906 54.703125 57.933594 56.871094 C 57.242188 59.511719 57.179688 59.839844 57.171875 60.683594 C 57.15625 61.332031 57.179688 61.5 57.316406 61.796875 C 57.445312 62.082031 57.542969 62.175781 57.820312 62.300781 C 58.109375 62.425781 58.195312 62.4375 58.4375 62.367188 C 59.097656 62.167969 60.160156 60.816406 61.355469 58.648438 C 61.507812 58.378906 61.632812 58.414062 61.632812 58.726562 C 61.632812 59.078125 61.972656 60.015625 62.265625 60.445312 C 62.613281 60.96875 63.113281 61.265625 63.660156 61.265625 C 64.410156 61.265625 65.40625 60.53125 66.097656 59.460938 C 66.289062 59.179688 66.449219 58.9375 66.457031 58.9375 C 66.460938 58.9375 66.460938 59.296875 66.449219 59.738281 C 66.390625 61.417969 66.761719 62.320312 67.554688 62.410156 C 67.816406 62.445312 67.945312 62.410156 68.203125 62.265625 C 68.898438 61.847656 69.992188 60.453125 71.175781 58.464844 C 72.101562 56.910156 73.128906 55.105469 73.128906 55.03125 C 73.128906 54.945312 72.777344 54.777344 72.699219 54.828125 C 72.660156 54.839844 72.378906 55.316406 72.074219 55.859375 C 70.863281 57.992188 69.21875 60.570312 68.738281 61.078125 C 68.414062 61.417969 68.113281 61.425781 68.019531 61.085938 C 67.910156 60.671875 68.15625 58.953125 68.550781 57.375 C 68.863281 56.117188 69.53125 53.75 69.757812 53.132812 C 69.859375 52.839844 69.925781 52.578125 69.902344 52.558594 C 69.875 52.535156 69.765625 52.570312 69.65625 52.644531 C 69.53125 52.730469 69.226562 52.796875 68.820312 52.832031 C 68.144531 52.898438 67.890625 52.988281 67.890625 53.152344 C 67.890625 53.335938 67.742188 53.351562 67.480469 53.199219 C 67.050781 52.941406 66.390625 52.753906 65.945312 52.753906 C 64.054688 52.761719 62.375 54.375 61.71875 56.8125 C 61.625 57.171875 61.375 57.664062 60.867188 58.507812 C 59.980469 59.992188 59.332031 60.945312 59.179688 61.003906 C 58.894531 61.113281 58.910156 60.832031 59.246094 59.519531 C 59.359375 59.0625 59.601562 58.125 59.777344 57.441406 C 60.613281 54.152344 60.582031 52.789062 59.652344 51.988281 C 59.085938 51.507812 58.566406 51.582031 57.921875 52.238281 C 57.300781 52.863281 56.59375 54.347656 55.480469 57.375 C 54.988281 58.726562 54.734375 59.316406 54.828125 58.894531 C 55.117188 57.613281 56.027344 53.234375 56.007812 53.21875 C 55.992188 53.203125 55.875 53.242188 55.746094 53.304688 C 55.621094 53.371094 55.277344 53.453125 54.988281 53.488281 C 54.238281 53.582031 54.152344 53.613281 54.070312 53.757812 C 54.027344 53.832031 53.882812 54.46875 53.742188 55.183594 C 53.597656 55.890625 53.445312 56.542969 53.402344 56.632812 C 52.972656 57.441406 50.824219 60.707031 50.476562 61.070312 C 50.164062 61.40625 49.878906 61.433594 49.761719 61.144531 C 49.667969 60.886719 49.785156 59.746094 50.03125 58.503906 C 50.273438 57.308594 51.132812 54.152344 51.496094 53.132812 C 51.597656 52.839844 51.664062 52.585938 51.640625 52.566406 C 51.625 52.542969 51.480469 52.59375 51.328125 52.671875 C 51.160156 52.753906 50.804688 52.832031 50.460938 52.863281 C 49.828125 52.921875 49.625 52.992188 49.625 53.160156 C 49.625 53.335938 49.429688 53.359375 49.203125 53.203125 C 48.882812 52.972656 48.140625 52.753906 47.683594 52.753906 C 46.582031 52.753906 45.476562 53.34375 44.625 54.363281 C 44.246094 54.820312 43.644531 56.019531 43.476562 56.648438 C 43.199219 57.65625 43.265625 58.886719 43.636719 59.769531 C 43.925781 60.480469 44.3125 60.933594 44.777344 61.128906 C 45.1875 61.296875 45.25 61.363281 45.113281 61.449219 C 45.070312 61.476562 44.605469 62.140625 44.082031 62.925781 C 42.609375 65.136719 41.4375 66.613281 40.128906 67.925781 C 38.789062 69.261719 37.714844 69.933594 36.8125 69.984375 C 35.078125 70.085938 34.796875 69.089844 34.234375 60.792969 C 34.0625 58.277344 33.820312 56.878906 33.238281 55.082031 C 32.46875 52.695312 31.660156 51.132812 30.5625 49.894531 C 30.101562 49.382812 29.257812 48.6875 28.816406 48.453125 L 28.488281 48.285156 L 28.777344 48.234375 C 28.9375 48.207031 29.316406 48.148438 29.613281 48.097656 C 31.789062 47.777344 34.605469 46.800781 36.183594 45.832031 C 36.417969 45.6875 36.585938 45.628906 36.644531 45.667969 C 37.421875 46.242188 37.464844 46.261719 38.398438 46.453125 C 39.234375 46.625 40.695312 46.582031 41.730469 46.34375 C 42.175781 46.234375 43.527344 45.804688 43.710938 45.703125 C 43.78125 45.667969 44.023438 45.550781 44.242188 45.449219 C 44.71875 45.230469 45.390625 44.84375 45.570312 44.691406 C 45.636719 44.632812 45.710938 44.597656 45.730469 44.617188 C 45.753906 44.640625 45.703125 44.945312 45.617188 45.300781 C 45.316406 46.539062 45.460938 47.425781 46.007812 47.703125 C 46.328125 47.878906 47.011719 47.804688 47.507812 47.550781 C 48.273438 47.171875 49.472656 45.777344 50.199219 44.445312 C 50.511719 43.875 50.65625 43.6875 50.59375 43.933594 C 50.546875 44.109375 50.898438 45.164062 51.078125 45.417969 C 51.160156 45.527344 51.226562 45.644531 51.226562 45.6875 C 51.226562 45.722656 51.386719 45.898438 51.582031 46.082031 C 52.179688 46.613281 52.863281 46.699219 53.589844 46.351562 C 53.976562 46.160156 54.683594 45.542969 55.097656 45.019531 L 55.371094 44.660156 L 55.371094 45.164062 C 55.371094 46.210938 55.664062 47.1875 56.078125 47.515625 C 56.355469 47.734375 56.851562 47.777344 57.214844 47.617188 C 57.863281 47.332031 59.15625 45.78125 60.058594 44.21875 C 60.277344 43.855469 60.429688 43.824219 60.355469 44.175781 C 60.3125 44.378906 60.4375 45.359375 60.523438 45.515625 C 60.554688 45.550781 60.582031 45.652344 60.589844 45.730469 C 60.683594 46.320312 61.339844 47.15625 61.820312 47.289062 C 62.167969 47.382812 62.191406 47.382812 62.648438 47.289062 C 63.273438 47.15625 63.953125 46.632812 64.773438 45.667969 L 64.957031 45.457031 L 65 45.992188 C 65.078125 47 65.566406 48.089844 66.039062 48.308594 C 66.703125 48.605469 67.226562 48.445312 67.800781 47.777344 C 68.238281 47.261719 69.636719 45.0625 70.1875 44.023438 L 70.324219 43.765625 L 70.371094 44.421875 C 70.542969 46.78125 71.796875 48.03125 73.667969 47.734375 C 73.929688 47.6875 74.269531 47.601562 74.421875 47.53125 C 75.273438 47.144531 76.597656 45.769531 77.355469 44.480469 L 77.617188 44.023438 L 77.660156 44.625 C 77.742188 45.675781 78.148438 46.582031 78.832031 47.238281 C 79.5 47.878906 80.875 47.957031 81.886719 47.421875 C 82.148438 47.28125 82.578125 46.933594 82.949219 46.570312 C 83.5625 45.964844 83.648438 45.863281 84.070312 45.308594 C 84.179688 45.15625 84.289062 45.046875 84.304688 45.0625 C 84.324219 45.078125 84.21875 45.59375 84.078125 46.210938 C 83.628906 48.148438 83.167969 50.511719 83.066406 51.445312 C 82.898438 52.898438 82.871094 53.359375 82.898438 54.179688 C 82.921875 55.109375 82.9375 55.21875 83.089844 55.613281 C 83.269531 56.078125 83.960938 56.539062 84.472656 56.539062 C 85.382812 56.539062 86.378906 54.980469 86.769531 52.9375 C 86.929688 52.097656 87.011719 50.410156 86.953125 49.222656 C 86.902344 48.324219 86.710938 47.203125 86.449219 46.308594 C 86.40625 46.140625 86.4375 45.878906 86.597656 45.25 C 86.710938 44.792969 86.980469 43.664062 87.207031 42.75 C 87.433594 41.824219 87.644531 40.953125 87.6875 40.792969 C 87.855469 40.160156 90.125 38.355469 90.75 38.347656 C 91.011719 38.347656 91.113281 38.652344 91.09375 39.417969 C 91.085938 39.808594 91.050781 40.210938 91.019531 40.3125 C 90.984375 40.414062 90.945312 40.585938 90.925781 40.710938 C 90.882812 41.003906 90.488281 42.320312 90.351562 42.648438 C 90.257812 42.878906 90.132812 42.96875 89.199219 43.433594 C 87.789062 44.136719 87.636719 44.226562 87.289062 44.566406 C 86.867188 44.984375 86.742188 45.171875 86.625 45.585938 C 86.5 46 86.53125 46.335938 86.699219 46.597656 C 86.867188 46.84375 87.425781 47.210938 87.730469 47.265625 C 88.175781 47.355469 88.875 47.253906 89.359375 47.035156 C 90.46875 46.546875 91.253906 45.652344 92.0625 43.957031 C 92.417969 43.214844 92.46875 43.140625 92.738281 43.03125 C 93.347656 42.792969 93.988281 42.457031 94.324219 42.21875 C 94.773438 41.898438 95.683594 40.558594 95.683594 40.214844 C 95.683594 40.09375 95.34375 39.933594 95.183594 39.984375 C 95.117188 40 94.890625 40.3125 94.6875 40.667969 C 94.25 41.410156 93.835938 41.808594 93.160156 42.128906 C 92.90625 42.246094 92.699219 42.328125 92.699219 42.304688 C 92.699219 42.28125 92.773438 41.925781 92.855469 41.527344 C 93.078125 40.464844 93.085938 39.160156 92.875 38.703125 C 92.699219 38.324219 92.226562 37.835938 92.039062 37.835938 C 91.964844 37.835938 91.886719 37.800781 91.855469 37.757812 C 91.804688 37.675781 91.035156 37.699219 90.554688 37.792969 C 90.140625 37.878906 89.171875 38.417969 88.589844 38.886719 C 88.269531 39.140625 88 39.34375 87.984375 39.328125 C 87.980469 39.320312 88.082031 38.8125 88.226562 38.207031 C 88.589844 36.636719 88.582031 36.613281 87.964844 36.882812 C 87.789062 36.964844 87.417969 37.042969 87.140625 37.074219 C 86.605469 37.125 86.421875 37.203125 86.304688 37.4375 C 86.261719 37.515625 85.976562 38.578125 85.671875 39.792969 C 85.121094 42.007812 84.9375 42.507812 84.363281 43.476562 C 84.265625 43.636719 84.164062 43.824219 84.144531 43.890625 C 84.113281 43.964844 84.070312 44.023438 84.035156 44.023438 C 84 44.023438 83.96875 44.066406 83.96875 44.125 C 83.96875 44.183594 83.949219 44.242188 83.917969 44.253906 C 83.882812 44.261719 83.621094 44.597656 83.328125 44.984375 C 82.484375 46.109375 81.613281 46.699219 80.929688 46.621094 C 80.652344 46.589844 80.542969 46.53125 80.324219 46.292969 C 80.171875 46.132812 80.019531 45.871094 79.972656 45.71875 C 79.835938 45.214844 79.765625 44.167969 79.828125 43.664062 C 79.910156 42.988281 79.996094 42.785156 80.199219 42.785156 C 80.296875 42.785156 80.664062 42.640625 81.023438 42.464844 C 82.121094 41.917969 83.261719 40.71875 83.648438 39.699219 C 83.730469 39.472656 83.78125 39.140625 83.789062 38.8125 C 83.789062 38.332031 83.765625 38.257812 83.5625 38.003906 C 83.277344 37.65625 82.964844 37.496094 82.367188 37.421875 C 81.304688 37.285156 80.367188 37.648438 79.589844 38.492188 C 79.066406 39.066406 79.042969 39.089844 78.78125 39.46875 C 78.679688 39.628906 78.605469 39.78125 78.628906 39.816406 C 78.648438 39.84375 78.636719 39.875 78.601562 39.875 C 78.527344 39.875 78.191406 40.652344 78.113281 40.980469 C 77.980469 41.578125 77.785156 42.203125 77.667969 42.429688 C 77.1875 43.335938 77.011719 43.644531 76.546875 44.34375 C 75.324219 46.167969 74.042969 47.003906 73.273438 46.480469 C 72.902344 46.226562 72.714844 45.898438 72.617188 45.316406 C 72.5 44.632812 72.507812 43.5625 72.632812 43.148438 C 72.71875 42.859375 72.761719 42.820312 73.011719 42.769531 C 73.871094 42.589844 75.273438 41.519531 75.914062 40.542969 C 76.335938 39.902344 76.496094 39.445312 76.503906 38.804688 C 76.511719 38.332031 76.488281 38.265625 76.285156 38.003906 C 76 37.648438 75.667969 37.480469 75.085938 37.414062 C 74.03125 37.292969 73.207031 37.597656 72.414062 38.40625 C 71.847656 38.980469 71.875 38.941406 71.4375 39.65625 C 71.257812 39.953125 71.015625 40.476562 70.90625 40.820312 C 70.601562 41.789062 70.492188 42.078125 70.363281 42.277344 C 70.296875 42.378906 70.179688 42.589844 70.101562 42.75 C 70.027344 42.910156 69.949219 43.054688 69.917969 43.074219 C 69.898438 43.097656 69.75 43.335938 69.597656 43.621094 C 69.453125 43.898438 69.105469 44.488281 68.828125 44.929688 C 68.550781 45.367188 68.304688 45.78125 68.273438 45.839844 C 68.246094 45.898438 68.195312 45.980469 68.164062 46.023438 C 68.128906 46.058594 67.902344 46.363281 67.664062 46.691406 C 67.421875 47.027344 67.199219 47.296875 67.167969 47.296875 C 67.058594 47.296875 67 46.742188 67.050781 46.152344 C 67.152344 44.925781 67.320312 43.660156 67.464844 42.9375 C 67.605469 42.253906 67.664062 42.121094 68.0625 41.519531 C 69.816406 38.878906 71.265625 35.8125 71.90625 33.398438 C 72.160156 32.453125 72.253906 31.113281 72.117188 30.589844 C 71.964844 30.03125 71.453125 29.542969 71.015625 29.542969 C 70.683594 29.542969 69.808594 30.042969 69.410156 30.472656 C 69.039062 30.859375 68.914062 31.019531 68.601562 31.5 C 68.46875 31.695312 67.851562 32.890625 67.824219 32.976562 C 67.816406 33.003906 67.742188 33.1875 67.664062 33.375 C 67.386719 34.011719 66.820312 35.820312 66.535156 36.964844 C 66.382812 37.582031 66.25 38.097656 66.242188 38.113281 C 66.238281 38.128906 66.027344 38.035156 65.769531 37.910156 C 65.515625 37.785156 65.253906 37.671875 65.195312 37.65625 C 64.191406 37.386719 63.558594 37.453125 62.832031 37.894531 C 62.476562 38.113281 61.703125 38.855469 61.703125 38.980469 C 61.703125 39.03125 61.683594 39.074219 61.644531 39.074219 C 61.59375 39.074219 61.3125 39.554688 61.304688 39.648438 C 61.296875 39.671875 61.246094 39.789062 61.179688 39.910156 C 61.046875 40.164062 60.613281 41.496094 60.613281 41.65625 C 60.613281 41.789062 60.378906 42.304688 60.300781 42.332031 C 60.269531 42.347656 60.261719 42.390625 60.292969 42.429688 C 60.3125 42.464844 60.292969 42.492188 60.253906 42.492188 C 60.210938 42.492188 60.175781 42.542969 60.175781 42.601562 C 60.175781 42.660156 60.152344 42.710938 60.117188 42.710938 C 60.089844 42.710938 60 42.835938 59.921875 42.980469 C 59.839844 43.132812 59.730469 43.300781 59.6875 43.351562 C 59.636719 43.402344 59.59375 43.484375 59.59375 43.519531 C 59.59375 43.554688 59.535156 43.652344 59.46875 43.730469 C 59.398438 43.804688 59.273438 43.992188 59.191406 44.144531 C 59.113281 44.296875 59.035156 44.4375 59.003906 44.457031 C 58.953125 44.503906 58.261719 45.558594 58.21875 45.660156 C 58.1875 45.71875 57.855469 46.101562 57.570312 46.394531 C 57.292969 46.679688 57.164062 46.34375 57.222656 45.558594 C 57.324219 44.242188 57.605469 42.953125 58.53125 39.730469 C 58.835938 38.671875 59.070312 37.765625 59.046875 37.707031 C 59.027344 37.632812 58.953125 37.648438 58.734375 37.757812 C 58.574219 37.835938 58.234375 37.917969 57.949219 37.9375 C 57.234375 37.996094 57.105469 38.035156 56.9375 38.214844 C 56.800781 38.382812 56.785156 38.382812 56.539062 38.257812 C 55.78125 37.902344 55.695312 37.878906 54.9375 37.886719 C 54.246094 37.886719 53.589844 38.097656 52.972656 38.511719 C 52.566406 38.789062 51.664062 39.707031 51.664062 39.84375 C 51.664062 39.902344 51.632812 39.945312 51.597656 39.945312 C 51.566406 39.945312 51.4375 40.144531 51.304688 40.375 C 51.050781 40.863281 50.695312 41.765625 50.761719 41.765625 C 50.789062 41.765625 50.773438 41.808594 50.730469 41.855469 C 50.695312 41.90625 50.644531 42.058594 50.621094 42.179688 C 50.601562 42.3125 50.535156 42.472656 50.46875 42.539062 C 50.402344 42.597656 50.332031 42.726562 50.308594 42.828125 C 50.285156 42.921875 50.238281 43.003906 50.207031 43.003906 C 50.171875 43.003906 50.105469 43.121094 50.054688 43.257812 C 50.003906 43.394531 49.929688 43.511719 49.894531 43.511719 C 49.863281 43.511719 49.859375 43.542969 49.878906 43.585938 C 49.902344 43.621094 49.886719 43.660156 49.851562 43.660156 C 49.808594 43.660156 49.769531 43.710938 49.769531 43.765625 C 49.769531 43.824219 49.742188 43.875 49.710938 43.875 C 49.675781 43.875 49.589844 44.007812 49.507812 44.167969 C 49.4375 44.328125 49.347656 44.457031 49.320312 44.457031 C 49.28125 44.457031 49.261719 44.507812 49.261719 44.566406 C 49.261719 44.625 49.230469 44.675781 49.1875 44.675781 C 49.152344 44.675781 49.113281 44.726562 49.113281 44.785156 C 49.113281 44.84375 49.085938 44.894531 49.042969 44.894531 C 49.007812 44.894531 48.96875 44.925781 48.96875 44.96875 C 48.96875 45.15625 47.84375 46.3125 47.726562 46.242188 C 47.667969 46.199219 47.652344 46.023438 47.683594 45.628906 C 47.726562 45.039062 47.863281 44.453125 48.242188 43.222656 L 48.476562 42.449219 L 49.167969 41.730469 C 50.875 39.941406 51.980469 38.425781 52.941406 36.5625 C 54.019531 34.476562 54.542969 32.53125 54.683594 30.125 C 54.769531 28.707031 54.484375 26.632812 54.0625 25.578125 C 54.035156 25.496094 53.960938 25.316406 53.910156 25.175781 C 53.304688 23.480469 51.632812 21.480469 50.171875 20.703125 C 49.980469 20.597656 49.785156 20.492188 49.742188 20.453125 C 49.566406 20.316406 48.316406 19.863281 47.695312 19.710938 C 46.882812 19.523438 44.785156 19.433594 44.082031 19.566406 C 41.695312 20.011719 39.539062 21.386719 37.886719 23.511719 C 37.242188 24.347656 36.527344 25.402344 36.527344 25.519531 C 36.527344 25.570312 36.503906 25.613281 36.476562 25.613281 C 36.410156 25.613281 36.214844 26.003906 36.027344 26.523438 C 35.902344 26.855469 35.84375 26.914062 35.320312 27.226562 C 35 27.410156 34.707031 27.570312 34.65625 27.570312 C 34.605469 27.578125 34.671875 27.332031 34.824219 26.960938 C 35.09375 26.296875 36.773438 19.675781 36.703125 19.566406 C 36.652344 19.480469 36.382812 19.480469 36.382812 19.566406 Z M 46.386719 21.429688 C 47.179688 21.660156 47.660156 21.910156 48.105469 22.324219 C 48.292969 22.5 48.488281 22.671875 48.554688 22.722656 C 48.699219 22.839844 49.203125 23.605469 49.421875 24.046875 C 49.800781 24.804688 50.121094 26 50.285156 27.214844 C 50.425781 28.253906 50.402344 30.640625 50.25 31.652344 C 50.105469 32.578125 49.910156 33.492188 49.699219 34.164062 C 49.625 34.402344 49.507812 34.78125 49.441406 35 C 49.378906 35.21875 49.261719 35.53125 49.1875 35.699219 C 49.109375 35.859375 48.984375 36.171875 48.898438 36.390625 C 48.714844 36.847656 47.90625 38.476562 47.785156 38.621094 C 47.703125 38.71875 47.53125 38.71875 46.851562 38.59375 L 46.582031 38.550781 L 47.011719 37.609375 C 47.6875 36.128906 47.820312 35.40625 47.484375 35.019531 C 47.332031 34.847656 47.261719 34.816406 46.917969 34.824219 C 46.421875 34.824219 45.796875 35.117188 45.316406 35.558594 C 45.128906 35.742188 44.96875 35.921875 44.96875 35.960938 C 44.96875 35.996094 44.910156 36.089844 44.828125 36.171875 C 44.640625 36.375 44.457031 36.984375 44.457031 37.414062 C 44.457031 38.003906 44.773438 38.519531 45.339844 38.886719 L 45.527344 39 L 45.1875 39.679688 C 45.003906 40.042969 44.777344 40.464844 44.691406 40.601562 C 44.472656 40.960938 44.488281 41.015625 44.828125 41.117188 C 45.113281 41.207031 45.136719 41.199219 45.265625 41.03125 C 45.339844 40.9375 45.40625 40.835938 45.40625 40.8125 C 45.40625 40.792969 45.59375 40.433594 45.828125 40.011719 L 46.242188 39.25 L 46.621094 39.328125 C 47.121094 39.445312 47.238281 39.539062 47.121094 39.75 C 47 39.992188 46.472656 40.769531 46.363281 40.878906 C 46.320312 40.9375 46.242188 41.046875 46.199219 41.125 C 46.152344 41.207031 46.058594 41.335938 45.988281 41.425781 C 45.914062 41.511719 45.652344 41.832031 45.40625 42.128906 C 44.546875 43.171875 43.761719 43.890625 42.792969 44.507812 C 41.300781 45.46875 39.792969 45.6875 37.75 45.246094 C 37.554688 45.207031 37.402344 45.148438 37.402344 45.121094 C 37.402344 45.089844 37.664062 44.859375 37.980469 44.613281 C 40.886719 42.363281 42.777344 39.277344 43.445312 35.707031 C 43.644531 34.65625 43.714844 32.554688 43.59375 31.660156 C 43.34375 29.964844 42.757812 28.707031 41.695312 27.648438 C 40.644531 26.601562 39.679688 26.214844 38.308594 26.296875 C 37.910156 26.320312 37.472656 26.371094 37.351562 26.40625 C 37.21875 26.441406 37.109375 26.457031 37.109375 26.433594 C 37.109375 26.414062 37.394531 26.042969 37.734375 25.621094 C 40.121094 22.671875 41.394531 21.734375 43.660156 21.261719 C 44.261719 21.128906 45.660156 21.21875 46.386719 21.429688 Z M 31.609375 21.917969 C 31.566406 22.164062 31.566406 22.179688 31.484375 22.484375 C 31.457031 22.585938 31.417969 22.746094 31.40625 22.847656 C 31.390625 22.949219 31.339844 23.160156 31.300781 23.320312 C 31.257812 23.480469 31.207031 23.726562 31.1875 23.867188 C 31.164062 24.003906 31.128906 24.1875 31.105469 24.265625 C 30.984375 24.769531 30.933594 25.023438 30.894531 25.25 C 30.875 25.386719 30.835938 25.570312 30.816406 25.648438 C 30.691406 26.160156 30.640625 26.414062 30.597656 26.667969 C 30.539062 27.007812 30.53125 27.054688 30.464844 27.25 C 30.445312 27.332031 30.40625 27.511719 30.386719 27.648438 C 30.335938 27.976562 30.296875 28.128906 30.210938 28.488281 C 30.167969 28.648438 30.117188 28.902344 30.09375 29.0625 C 30.066406 29.214844 30.035156 29.359375 30.023438 29.390625 C 30.007812 29.410156 29.972656 29.550781 29.949219 29.6875 C 29.898438 29.992188 29.863281 30.160156 29.789062 30.453125 C 29.761719 30.566406 29.730469 30.75 29.71875 30.851562 C 29.710938 30.953125 29.695312 31.035156 29.6875 31.035156 C 29.679688 31.035156 29.664062 31.097656 29.660156 31.179688 C 29.644531 31.257812 29.59375 31.636719 29.550781 32.015625 C 29.5 32.394531 29.441406 32.773438 29.425781 32.859375 C 29.410156 32.941406 29.238281 33.265625 29.03125 33.574219 C 27.941406 35.246094 26.726562 37.363281 25.554688 39.648438 L 24.972656 40.777344 L 24.617188 40.753906 C 24.257812 40.742188 24.253906 40.742188 24.203125 40.972656 C 24.128906 41.328125 24.148438 41.621094 24.246094 41.621094 C 24.289062 41.621094 24.417969 41.511719 24.527344 41.382812 L 24.730469 41.148438 L 24.578125 41.546875 C 24.492188 41.765625 24.171875 42.539062 23.867188 43.257812 C 23.5625 43.976562 23.261719 44.675781 23.210938 44.816406 C 23.152344 44.953125 23.101562 45.035156 23.085938 44.988281 C 23.050781 44.894531 23.742188 42.210938 23.984375 41.496094 C 24.078125 41.214844 24.15625 40.894531 24.15625 40.792969 C 24.15625 40.617188 26.667969 30.457031 26.742188 30.34375 C 26.761719 30.3125 26.929688 30.363281 27.117188 30.457031 C 27.730469 30.757812 27.863281 30.683594 27.890625 30.035156 L 27.90625 29.796875 L 27.433594 29.738281 C 27.167969 29.703125 26.953125 29.660156 26.9375 29.652344 C 26.90625 29.621094 27.535156 27.105469 27.695312 26.609375 C 27.867188 26.078125 27.796875 26.003906 27.375 26.273438 C 26.980469 26.515625 26.070312 26.734375 25.097656 26.820312 L 24.515625 26.871094 L 24.550781 26.695312 C 24.574219 26.601562 24.632812 26.246094 24.675781 25.910156 C 24.835938 24.625 25.320312 23.75 26.246094 23.058594 C 26.863281 22.59375 26.980469 22.542969 28.304688 22.15625 C 28.625 22.070312 29.550781 21.886719 30.34375 21.761719 C 30.5625 21.726562 30.945312 21.699219 31.203125 21.691406 L 31.652344 21.683594 Z M 38.304688 27.984375 C 39.03125 28.230469 39.628906 29.121094 39.910156 30.34375 C 40.078125 31.070312 40.136719 33.011719 40.027344 33.953125 C 39.730469 36.390625 38.769531 38.753906 37.015625 41.367188 C 36.613281 41.957031 35.777344 43.003906 35.707031 43.003906 C 35.617188 43.003906 35.660156 41.644531 35.761719 41.265625 C 35.910156 40.71875 36.082031 40.449219 36.671875 39.875 L 37.234375 39.328125 L 36.992188 38.972656 C 36.65625 38.46875 36.578125 38.441406 36.25 38.695312 C 35.539062 39.261719 34.976562 40.003906 34.746094 40.703125 C 34.5625 41.226562 34.546875 41.308594 34.511719 41.992188 C 34.484375 42.523438 34.496094 42.691406 34.636719 43.046875 C 34.722656 43.289062 34.847656 43.535156 34.910156 43.605469 C 35.015625 43.722656 35.007812 43.753906 34.738281 44.027344 C 34.113281 44.683594 32.730469 45.667969 31.746094 46.152344 C 31.113281 46.472656 29.898438 46.953125 29.855469 46.902344 C 29.832031 46.882812 29.871094 46.75 29.933594 46.605469 C 30 46.46875 30.101562 46.242188 30.160156 46.109375 C 30.21875 45.988281 30.65625 44.515625 31.136719 42.851562 C 32.257812 38.964844 32.648438 37.671875 33.1875 36.054688 C 34.140625 33.230469 35.699219 29.25 35.878906 29.191406 C 35.917969 29.179688 35.929688 29.140625 35.910156 29.113281 C 35.859375 29.027344 36.097656 28.210938 36.207031 28.09375 C 36.46875 27.800781 37.609375 27.746094 38.304688 27.984375 Z M 71.46875 30.722656 C 71.78125 31.28125 71.308594 33.601562 70.457031 35.691406 C 70.09375 36.578125 69.183594 38.417969 68.558594 39.519531 C 68.476562 39.664062 68.367188 39.859375 68.3125 39.953125 C 68.261719 40.050781 68.15625 40.210938 68.078125 40.3125 L 67.9375 40.492188 L 67.992188 40.128906 C 68.09375 39.429688 68.695312 36.503906 68.953125 35.53125 C 69.527344 33.3125 70.261719 31.515625 70.855469 30.867188 C 71.183594 30.523438 71.335938 30.488281 71.46875 30.722656 Z M 46.640625 36.046875 C 46.640625 36.382812 45.964844 38.203125 45.839844 38.203125 C 45.8125 38.203125 45.753906 38.121094 45.695312 38.027344 C 45.484375 37.625 45.789062 36.628906 46.300781 36.105469 C 46.570312 35.828125 46.640625 35.8125 46.640625 36.046875 Z M 28.40625 37.292969 C 28.203125 37.945312 27.425781 40.636719 27.386719 40.8125 C 27.367188 40.914062 27.285156 41.183594 27.207031 41.417969 C 27.132812 41.648438 27.015625 42.027344 26.960938 42.261719 C 26.855469 42.691406 26.535156 43.875 26.085938 45.515625 C 25.945312 46.03125 25.808594 46.578125 25.792969 46.714844 C 25.699219 47.304688 25.664062 47.425781 25.453125 47.828125 C 25.300781 48.125 25.257812 48.277344 25.316406 48.335938 C 25.367188 48.402344 25.34375 48.527344 25.234375 48.75 C 25.105469 49.035156 24.527344 50.703125 24.492188 50.898438 C 24.484375 50.933594 24.464844 51 24.441406 51.042969 C 24.410156 51.078125 24.355469 51.246094 24.304688 51.40625 C 24.195312 51.765625 23.460938 53.722656 23.320312 54.027344 C 22.804688 55.167969 22.082031 56.480469 21.386719 57.519531 C 21.121094 57.914062 19.742188 59.347656 19.675781 59.289062 C 19.660156 59.265625 19.792969 58.84375 19.972656 58.347656 C 20.757812 56.246094 21.558594 53.613281 22.191406 51.078125 C 22.601562 49.4375 23.726562 46.589844 25.539062 42.675781 C 26.53125 40.53125 28.421875 36.832031 28.496094 36.914062 C 28.507812 36.921875 28.464844 37.09375 28.40625 37.292969 Z M 65.660156 38.535156 C 65.851562 38.601562 66.027344 38.695312 66.039062 38.746094 C 66.0625 38.789062 65.960938 39.386719 65.820312 40.0625 C 65.683594 40.742188 65.464844 41.933594 65.335938 42.710938 C 65.210938 43.492188 65.085938 44.144531 65.058594 44.167969 C 64.976562 44.234375 64.613281 44.734375 64.613281 44.785156 C 64.613281 44.828125 64.585938 44.867188 64.300781 45.191406 C 63.699219 45.890625 63.523438 46.058594 63.363281 46.097656 C 62.832031 46.234375 62.546875 45.148438 62.65625 43.390625 C 62.75 41.992188 63.246094 40.390625 63.878906 39.429688 C 64.226562 38.90625 64.503906 38.660156 64.890625 38.519531 C 65.238281 38.398438 65.253906 38.398438 65.660156 38.535156 Z M 75.730469 38.566406 C 75.980469 38.796875 75.945312 39.183594 75.632812 39.742188 C 75.046875 40.777344 74.203125 41.644531 73.390625 42.027344 C 73.113281 42.167969 72.867188 42.261719 72.851562 42.246094 C 72.742188 42.128906 73.25 40.484375 73.621094 39.78125 C 74.144531 38.777344 75.265625 38.128906 75.730469 38.566406 Z M 83 38.609375 C 83.160156 38.769531 83.175781 38.835938 83.140625 39.089844 C 83.089844 39.378906 82.957031 39.722656 82.789062 39.976562 C 82.46875 40.464844 81.828125 41.207031 81.445312 41.539062 C 81.050781 41.890625 80.113281 42.332031 80.113281 42.175781 C 80.113281 42.121094 80.179688 41.824219 80.257812 41.503906 C 80.679688 39.859375 81.34375 38.835938 82.1875 38.535156 C 82.617188 38.382812 82.789062 38.398438 83 38.609375 Z M 56.398438 38.855469 C 56.550781 38.9375 56.683594 39.015625 56.683594 39.03125 C 56.683594 39.25 55.765625 42.777344 55.664062 42.945312 C 55.589844 43.070312 55.539062 43.199219 55.5625 43.234375 C 55.585938 43.265625 55.5625 43.292969 55.527344 43.292969 C 55.480469 43.292969 55.445312 43.34375 55.445312 43.402344 C 55.445312 43.460938 55.410156 43.511719 55.367188 43.511719 C 55.328125 43.511719 55.308594 43.542969 55.328125 43.578125 C 55.359375 43.613281 55.351562 43.660156 55.316406 43.671875 C 55.285156 43.679688 55.109375 43.90625 54.929688 44.167969 C 54.375 44.9375 53.941406 45.382812 53.515625 45.59375 C 53.140625 45.777344 53.109375 45.777344 52.9375 45.667969 C 52.839844 45.601562 52.738281 45.457031 52.71875 45.347656 C 52.6875 45.238281 52.660156 45.085938 52.644531 45.003906 C 52.601562 44.800781 52.746094 43.359375 52.871094 42.75 C 52.929688 42.464844 53.074219 41.910156 53.199219 41.511719 C 53.574219 40.304688 53.984375 39.613281 54.601562 39.148438 C 55.292969 38.621094 55.78125 38.542969 56.398438 38.855469 Z M 18.832031 38.941406 C 19.019531 38.988281 19.457031 39.203125 19.8125 39.417969 C 20.324219 39.734375 20.445312 39.84375 20.445312 39.984375 C 20.445312 40.261719 20.148438 41.570312 20.0625 41.679688 C 20.015625 41.738281 19.855469 41.839844 19.710938 41.917969 C 19.3125 42.121094 18.582031 42.75 18.300781 43.132812 C 17.878906 43.714844 17.644531 44.398438 17.644531 45.078125 C 17.652344 45.929688 17.929688 46.480469 18.539062 46.867188 C 18.671875 46.953125 18.773438 47.078125 18.773438 47.15625 C 18.773438 47.375 17.464844 52.558594 16.992188 54.210938 C 16.464844 56.042969 15.628906 58.539062 15.535156 58.539062 C 15.433594 58.539062 14.574219 57.03125 14.328125 56.414062 C 14.210938 56.128906 14.035156 55.519531 13.933594 55.054688 C 13.832031 54.59375 13.703125 54.078125 13.636719 53.917969 L 13.511719 53.621094 L 13.746094 53.328125 C 14.304688 52.636719 14.558594 51.648438 14.558594 50.171875 C 14.558594 49.371094 14.53125 49.167969 14.289062 48.328125 C 14.246094 48.167969 14.253906 48.167969 14.867188 48.167969 C 15.535156 48.167969 16.496094 48.324219 16.925781 48.503906 C 17.070312 48.5625 17.207031 48.597656 17.230469 48.570312 C 17.273438 48.535156 17.535156 47.566406 17.558594 47.375 C 17.566406 47.304688 17.464844 47.246094 17.246094 47.210938 C 16.773438 47.121094 15.28125 47.109375 14.507812 47.171875 L 13.847656 47.230469 L 13.753906 47 C 13.65625 46.785156 13.671875 46.707031 13.839844 46.210938 C 13.949219 45.90625 14.128906 45.246094 14.253906 44.742188 C 14.785156 42.507812 15.59375 40.636719 16.40625 39.742188 C 16.691406 39.421875 17.214844 39.058594 17.535156 38.957031 C 17.878906 38.839844 18.417969 38.835938 18.832031 38.941406 Z M 19.433594 44.589844 C 19.269531 45.296875 19.109375 45.941406 19.070312 46.023438 C 19.019531 46.160156 19.011719 46.152344 18.917969 45.988281 C 18.867188 45.886719 18.808594 45.570312 18.789062 45.296875 C 18.757812 44.867188 18.789062 44.707031 18.933594 44.34375 C 19.128906 43.863281 19.660156 43.082031 19.703125 43.214844 C 19.71875 43.257812 19.59375 43.875 19.433594 44.589844 Z M 89.644531 44.398438 C 88.902344 45.886719 88.488281 46.328125 87.789062 46.402344 C 87.511719 46.4375 87.460938 46.417969 87.351562 46.253906 C 87.257812 46.101562 87.25 46.023438 87.308594 45.78125 C 87.417969 45.398438 87.601562 45.179688 88.152344 44.785156 C 88.480469 44.554688 89.789062 43.796875 89.980469 43.730469 C 89.980469 43.730469 89.828125 44.035156 89.644531 44.398438 Z M 11.097656 45.46875 C 11.640625 45.722656 12.253906 46.3125 12.617188 46.933594 C 12.914062 47.441406 12.929688 47.5 12.753906 47.566406 C 12.238281 47.761719 11.316406 48.410156 10.734375 49 C 9.984375 49.75 9.722656 50.191406 9.5625 50.941406 C 9.371094 51.851562 9.605469 52.628906 10.265625 53.269531 C 10.769531 53.757812 11.328125 54.011719 12.003906 54.0625 L 12.550781 54.101562 L 12.566406 54.683594 C 12.589844 55.496094 12.589844 55.511719 12.660156 55.554688 C 12.699219 55.578125 12.710938 55.640625 12.691406 55.695312 C 12.667969 55.75 12.683594 55.816406 12.726562 55.839844 C 12.769531 55.867188 12.785156 55.933594 12.761719 55.984375 C 12.742188 56.042969 12.761719 56.109375 12.800781 56.136719 C 12.84375 56.160156 12.863281 56.21875 12.835938 56.253906 C 12.8125 56.289062 12.835938 56.371094 12.878906 56.429688 C 12.929688 56.488281 12.953125 56.539062 12.929688 56.539062 C 12.785156 56.539062 13.652344 58.488281 13.984375 58.910156 C 14.1875 59.171875 14.816406 59.789062 14.945312 59.863281 C 15.070312 59.929688 15.054688 59.988281 14.726562 60.765625 C 13.890625 62.746094 13.023438 64.191406 12.160156 65.058594 C 11.527344 65.683594 11.175781 65.871094 10.296875 66.039062 C 9.539062 66.191406 9.015625 66.121094 8.324219 65.777344 C 7.574219 65.40625 6.550781 64.199219 6.070312 63.109375 C 5.808594 62.519531 5.558594 61.535156 5.371094 60.355469 C 5.222656 59.460938 5.203125 59.078125 5.210938 57.15625 C 5.210938 54.894531 5.269531 54.203125 5.609375 52.390625 C 5.988281 50.394531 6.710938 48.242188 7.394531 47.070312 C 7.960938 46.109375 8.761719 45.398438 9.445312 45.25 C 9.925781 45.148438 10.609375 45.238281 11.097656 45.46875 Z M 86.21875 48.535156 C 86.488281 50.308594 86.339844 52.40625 85.832031 53.894531 C 85.738281 54.179688 85.671875 54.433594 85.699219 54.457031 C 85.722656 54.476562 85.699219 54.5 85.65625 54.5 C 85.605469 54.5 85.570312 54.558594 85.570312 54.636719 C 85.570312 54.710938 85.519531 54.8125 85.460938 54.863281 C 85.402344 54.914062 85.351562 54.988281 85.351562 55.015625 C 85.351562 55.132812 84.902344 55.589844 84.835938 55.546875 C 84.796875 55.527344 84.769531 55.292969 84.769531 55.023438 C 84.769531 54.414062 84.9375 53.328125 85.488281 50.390625 C 85.949219 47.945312 86.035156 47.5 86.058594 47.558594 C 86.074219 47.59375 86.136719 48.03125 86.21875 48.535156 Z M 12.40625 49.09375 C 12.261719 49.691406 12.152344 50.542969 12.152344 51.136719 C 12.152344 51.777344 12.320312 52.78125 12.433594 52.855469 C 12.464844 52.878906 12.617188 52.804688 12.777344 52.703125 C 12.929688 52.59375 13.015625 52.566406 12.964844 52.628906 C 12.90625 52.695312 12.71875 52.832031 12.535156 52.941406 C 12.273438 53.097656 12.144531 53.125 11.890625 53.097656 C 10.703125 52.964844 10.136719 51.71875 10.734375 50.5625 C 10.996094 50.0625 12.160156 48.898438 12.398438 48.898438 C 12.429688 48.898438 12.433594 48.984375 12.40625 49.09375 Z M 48.949219 53.523438 C 49.457031 53.699219 49.488281 53.730469 49.371094 54.054688 C 49.320312 54.210938 49.160156 54.492188 49.019531 54.6875 C 48.789062 55.023438 46.261719 59.410156 45.921875 60.082031 C 45.839844 60.25 45.789062 60.4375 45.8125 60.503906 C 45.855469 60.597656 45.820312 60.621094 45.652344 60.597656 C 45.214844 60.546875 45.089844 59.890625 45.257812 58.503906 C 45.492188 56.59375 46.117188 54.886719 46.867188 54.136719 C 47.53125 53.472656 48.207031 53.277344 48.949219 53.523438 Z M 67.4375 53.621094 C 67.664062 53.734375 67.742188 53.816406 67.714844 53.902344 C 67.691406 53.96875 67.488281 54.796875 67.261719 55.738281 C 66.832031 57.550781 66.722656 57.820312 66.082031 58.792969 C 65.132812 60.234375 63.996094 60.992188 63.625 60.429688 C 63.28125 59.90625 63.492188 57.820312 64.070312 56.0625 C 64.476562 54.820312 65.078125 53.992188 65.867188 53.597656 C 66.191406 53.429688 66.316406 53.402344 66.6875 53.429688 C 66.933594 53.445312 67.261719 53.53125 67.4375 53.621094 Z M 67.4375 53.621094 "/>
</g>
</svg>
