<?xml version="1.0" encoding="UTF-8"?>
<svg xmlns="http://www.w3.org/2000/svg" xmlns:xlink="http://www.w3.org/1999/xlink" width="99pt" height="55pt" viewBox="0 0 99 55" version="1.1">
<g id="surface1">
<path style=" stroke:none;fill-rule:nonzero;fill:rgb(0%,0%,0%);fill-opacity:1;" d="M 0.40625 3.84375 C 0.40625 7.722656 4.773438 11.484375 10.796875 12.859375 C 14.921875 13.832031 17.269531 14.03125 29.117188 14.558594 C 38.339844 14.964844 40.15625 15.246094 40.359375 16.257812 C 40.523438 17.027344 39.671875 17.269531 35.589844 17.59375 C 30.613281 18.035156 13.183594 16.621094 10.394531 15.570312 C 9.261719 15.125 9.542969 16.863281 11.039062 19.613281 C 12.617188 22.40625 15.125 24.34375 18.402344 25.277344 C 19.855469 25.71875 23.78125 26.042969 30.777344 26.285156 C 40.804688 26.652344 43.554688 26.972656 43.394531 27.742188 C 43.230469 28.429688 40.644531 28.753906 32.878906 28.996094 C 28.027344 29.15625 25.074219 29.402344 25.074219 29.644531 C 25.074219 29.84375 26.042969 30.976562 27.21875 32.152344 C 34.535156 39.429688 45.859375 36.03125 59.652344 22.445312 C 61.550781 20.585938 63.089844 18.84375 63.089844 18.601562 C 63.089844 18.402344 62.199219 18.765625 61.066406 19.453125 C 59.972656 20.140625 59.042969 20.867188 59.042969 21.070312 C 59.042969 21.273438 58.84375 21.433594 58.597656 21.433594 C 58.355469 21.433594 58.234375 21.070312 58.355469 20.625 C 58.679688 19.410156 57.992188 19.65625 56.214844 21.433594 C 54.394531 23.253906 54.03125 23.414062 54.394531 22.242188 C 54.554688 21.757812 54.472656 21.433594 54.230469 21.433594 C 53.421875 21.433594 51.035156 23.214844 50.429688 24.265625 C 49.863281 25.15625 49.742188 25.195312 49.539062 24.589844 C 49.378906 24.183594 49.539062 23.011719 49.90625 21.917969 L 50.550781 19.976562 L 56.132812 18.441406 C 63.9375 16.296875 65.273438 15.851562 66.929688 14.761719 L 68.34375 13.789062 L 69.761719 16.539062 C 71.09375 19.210938 74.574219 23.253906 76.917969 24.910156 C 78.414062 25.964844 78.941406 29.117188 77.847656 30.332031 C 76.878906 31.382812 75.867188 31.34375 74.289062 30.167969 C 73.320312 29.441406 72.308594 29.15625 70.164062 29.035156 C 66.929688 28.792969 65.839844 28.269531 64.828125 26.40625 C 63.9375 24.710938 63.492188 24.710938 63.492188 26.367188 C 63.492188 27.5 63.25 27.863281 61.875 28.632812 C 59.367188 30.046875 55 34.375 52.777344 37.609375 L 50.753906 40.523438 L 50.753906 53.179688 L 55.566406 53.300781 C 58.71875 53.382812 60.539062 53.261719 60.90625 52.9375 C 61.347656 52.574219 61.46875 51.035156 61.46875 46.0625 L 61.46875 39.632812 L 67.253906 39.632812 C 73.84375 39.632812 77.28125 39.027344 80.761719 37.285156 C 85.167969 35.023438 87.433594 31.625 88.242188 25.964844 C 89.375 17.835938 86.464844 10.917969 80.761719 8.089844 C 76.515625 6.027344 73.84375 5.660156 61.59375 5.660156 L 50.550781 5.660156 L 50.550781 8.9375 C 50.550781 11.890625 50.46875 12.171875 49.863281 11.929688 C 46.992188 10.71875 43.3125 9.949219 37.207031 9.261719 C 26.40625 8.046875 15.730469 6.105469 5.582031 3.519531 L 0.40625 2.183594 Z M 0.40625 3.84375 "/>
</g>
</svg>
