<?xml version="1.0" encoding="UTF-8"?>
<svg xmlns="http://www.w3.org/2000/svg" xmlns:xlink="http://www.w3.org/1999/xlink" width="360pt" height="360pt" viewBox="0 0 360 360" version="1.1">
<g id="surface1">
<path style=" stroke:none;fill-rule:nonzero;fill:rgb(0%,0%,0%);fill-opacity:1;" d="M 345 194.6875 L 15 194.6875 C 6.71875 194.6875 0 187.96875 0 179.6875 C 0 171.410156 6.71875 164.6875 15 164.6875 L 345 164.6875 C 353.28125 164.6875 360 171.410156 360 179.6875 C 360 187.96875 353.28125 194.6875 345 194.6875 Z M 345 194.6875 "/>
<path style=" stroke:none;fill-rule:nonzero;fill:rgb(0%,0%,0%);fill-opacity:1;" d="M 345 79.6875 L 15 79.6875 C 6.71875 79.6875 0 72.96875 0 64.6875 C 0 56.40625 6.71875 49.6875 15 49.6875 L 345 49.6875 C 353.28125 49.6875 360 56.40625 360 64.6875 C 360 72.96875 353.28125 79.6875 345 79.6875 Z M 345 79.6875 "/>
<path style=" stroke:none;fill-rule:nonzero;fill:rgb(0%,0%,0%);fill-opacity:1;" d="M 345 309.6875 L 15 309.6875 C 6.71875 309.6875 0 302.964844 0 294.6875 C 0 286.40625 6.71875 279.6875 15 279.6875 L 345 279.6875 C 353.28125 279.6875 360 286.40625 360 294.6875 C 360 302.964844 353.28125 309.6875 345 309.6875 Z M 345 309.6875 "/>
</g>
</svg>
