<?xml version="1.0" encoding="UTF-8"?>
<svg xmlns="http://www.w3.org/2000/svg" xmlns:xlink="http://www.w3.org/1999/xlink" width="54pt" height="54pt" viewBox="0 0 54 54" version="1.1">
<g id="surface1">
<path style=" stroke:none;fill-rule:nonzero;fill:rgb(0%,0%,0%);fill-opacity:1;" d="M 36.28125 34.59375 C 36.28125 36.925781 38.167969 38.8125 40.5 38.8125 C 42.832031 38.8125 44.71875 36.925781 44.71875 34.59375 C 44.71875 32.261719 42.832031 30.375 40.5 30.375 C 38.171875 30.378906 36.285156 32.265625 36.28125 34.59375 Z M 43.03125 34.59375 C 43.03125 35.992188 41.898438 37.125 40.5 37.125 C 39.101562 37.125 37.96875 35.992188 37.96875 34.59375 C 37.96875 33.195312 39.101562 32.0625 40.5 32.0625 C 41.898438 32.0625 43.03125 33.195312 43.03125 34.59375 Z M 43.03125 34.59375 "/>
<path style=" stroke:none;fill-rule:nonzero;fill:rgb(0%,0%,0%);fill-opacity:1;" d="M 43.4375 46.667969 C 46 43.363281 49.78125 37.917969 49.78125 34.59375 C 49.769531 30.121094 46.582031 26.292969 42.1875 25.472656 L 42.1875 6.75 L 43.875 6.75 C 44.339844 6.75 44.71875 6.371094 44.71875 5.90625 L 44.71875 2.53125 C 44.71875 2.066406 44.339844 1.6875 43.875 1.6875 L 5.0625 1.6875 C 4.597656 1.6875 4.21875 2.066406 4.21875 2.53125 L 4.21875 5.90625 C 4.21875 6.371094 4.597656 6.75 5.0625 6.75 L 6.75 6.75 L 6.75 40.5 L 5.0625 40.5 C 4.597656 40.5 4.21875 40.878906 4.21875 41.34375 L 4.21875 43.875 C 4.21875 44.339844 4.597656 44.71875 5.0625 44.71875 L 36.101562 44.71875 C 36.613281 45.417969 37.109375 46.074219 37.5625 46.667969 C 35.527344 47.054688 33.75 47.898438 33.75 49.359375 C 33.75 51.382812 37.25 52.3125 40.5 52.3125 C 43.75 52.3125 47.25 51.382812 47.25 49.359375 C 47.25 47.898438 45.472656 47.054688 43.4375 46.667969 Z M 5.90625 5.0625 L 5.90625 3.375 L 43.03125 3.375 L 43.03125 5.0625 Z M 37.96875 18.5625 L 32.90625 18.5625 C 32.441406 18.5625 32.0625 18.941406 32.0625 19.40625 L 32.0625 25.3125 L 31.21875 25.3125 L 31.21875 27 L 35.183594 27 C 32.699219 28.730469 31.222656 31.566406 31.21875 34.59375 C 31.21875 36.222656 32.128906 38.359375 33.351562 40.5 L 29.53125 40.5 L 29.53125 36.28125 C 29.53125 33.484375 27.265625 31.21875 24.46875 31.21875 C 21.671875 31.21875 19.40625 33.484375 19.40625 36.28125 L 19.40625 40.5 L 8.4375 40.5 L 8.4375 6.75 L 40.5 6.75 L 40.5 25.3125 C 39.933594 25.316406 39.371094 25.367188 38.8125 25.472656 L 38.8125 19.40625 C 38.8125 18.941406 38.433594 18.5625 37.96875 18.5625 Z M 37.125 20.25 L 37.125 25.3125 L 33.75 25.3125 L 33.75 20.25 Z M 27.84375 36.28125 L 27.84375 40.5 L 21.09375 40.5 L 21.09375 36.28125 C 21.09375 34.417969 22.605469 32.90625 24.46875 32.90625 C 26.332031 32.90625 27.84375 34.417969 27.84375 36.28125 Z M 5.90625 43.03125 L 5.90625 42.1875 L 34.375 42.1875 C 34.5625 42.472656 34.746094 42.753906 34.929688 43.03125 Z M 32.90625 34.59375 C 32.90625 30.398438 36.304688 27 40.5 27 C 44.695312 27 48.09375 30.398438 48.09375 34.59375 C 48.09375 37.859375 43.089844 44.523438 40.5 47.640625 C 37.910156 44.523438 32.90625 37.859375 32.90625 34.59375 Z M 40.5 50.625 C 37.261719 50.625 35.539062 49.695312 35.4375 49.375 C 35.511719 49.117188 36.59375 48.449219 38.78125 48.203125 C 39.378906 48.9375 39.792969 49.410156 39.867188 49.496094 C 40.027344 49.675781 40.257812 49.777344 40.5 49.777344 C 40.742188 49.777344 40.972656 49.675781 41.132812 49.496094 C 41.207031 49.410156 41.621094 48.9375 42.21875 48.203125 C 44.40625 48.449219 45.488281 49.117188 45.5625 49.34375 C 45.460938 49.695312 43.738281 50.625 40.5 50.625 Z M 40.5 50.625 "/>
<path style=" stroke:none;fill-rule:nonzero;fill:rgb(0%,0%,0%);fill-opacity:1;" d="M 38.8125 15.1875 L 38.8125 9.28125 C 38.8125 8.816406 38.433594 8.4375 37.96875 8.4375 L 32.90625 8.4375 C 32.441406 8.4375 32.0625 8.816406 32.0625 9.28125 L 32.0625 15.1875 L 31.21875 15.1875 L 31.21875 16.875 L 39.65625 16.875 L 39.65625 15.1875 Z M 37.125 15.1875 L 33.75 15.1875 L 33.75 10.125 L 37.125 10.125 Z M 37.125 15.1875 "/>
<path style=" stroke:none;fill-rule:nonzero;fill:rgb(0%,0%,0%);fill-opacity:1;" d="M 27.84375 15.1875 L 27.84375 9.28125 C 27.84375 8.816406 27.464844 8.4375 27 8.4375 L 21.9375 8.4375 C 21.472656 8.4375 21.09375 8.816406 21.09375 9.28125 L 21.09375 15.1875 L 20.25 15.1875 L 20.25 16.875 L 28.6875 16.875 L 28.6875 15.1875 Z M 26.15625 15.1875 L 22.78125 15.1875 L 22.78125 10.125 L 26.15625 10.125 Z M 26.15625 15.1875 "/>
<path style=" stroke:none;fill-rule:nonzero;fill:rgb(0%,0%,0%);fill-opacity:1;" d="M 16.875 15.1875 L 16.875 9.28125 C 16.875 8.816406 16.496094 8.4375 16.03125 8.4375 L 10.96875 8.4375 C 10.503906 8.4375 10.125 8.816406 10.125 9.28125 L 10.125 15.1875 L 9.28125 15.1875 L 9.28125 16.875 L 17.71875 16.875 L 17.71875 15.1875 Z M 15.1875 15.1875 L 11.8125 15.1875 L 11.8125 10.125 L 15.1875 10.125 Z M 15.1875 15.1875 "/>
<path style=" stroke:none;fill-rule:nonzero;fill:rgb(0%,0%,0%);fill-opacity:1;" d="M 16.875 25.3125 L 16.875 19.40625 C 16.875 18.941406 16.496094 18.5625 16.03125 18.5625 L 10.96875 18.5625 C 10.503906 18.5625 10.125 18.941406 10.125 19.40625 L 10.125 25.3125 L 9.28125 25.3125 L 9.28125 27 L 17.71875 27 L 17.71875 25.3125 Z M 15.1875 25.3125 L 11.8125 25.3125 L 11.8125 20.25 L 15.1875 20.25 Z M 15.1875 25.3125 "/>
<path style=" stroke:none;fill-rule:nonzero;fill:rgb(0%,0%,0%);fill-opacity:1;" d="M 27.84375 25.3125 L 27.84375 19.40625 C 27.84375 18.941406 27.464844 18.5625 27 18.5625 L 21.9375 18.5625 C 21.472656 18.5625 21.09375 18.941406 21.09375 19.40625 L 21.09375 25.3125 L 20.25 25.3125 L 20.25 27 L 28.6875 27 L 28.6875 25.3125 Z M 26.15625 25.3125 L 22.78125 25.3125 L 22.78125 20.25 L 26.15625 20.25 Z M 26.15625 25.3125 "/>
</g>
</svg>
